<?xml version="1.0" standalone="no"?><!DOCTYPE svg PUBLIC "-//W3C//DTD SVG 1.1//EN" "http://www.w3.org/Graphics/SVG/1.1/DTD/svg11.dtd"><svg t="1527745863085" class="icon" style="" viewBox="0 0 1097 1024" version="1.1" xmlns="http://www.w3.org/2000/svg" p-id="1630" xmlns:xlink="http://www.w3.org/1999/xlink" width="17.140625" height="16"><defs><style type="text/css"></style></defs><path d="M731.428571 859.428571c0 9.728-8.557714 18.285714-18.285714 18.285715h-548.571428c-21.138286 0-18.285714-22.272-18.285715-36.571429v-329.142857H36.571429c-20.004571 0-36.571429-16.566857-36.571429-36.571429 0-8.557714 2.852571-17.152 8.557714-23.442285l182.857143-219.428572c6.838857-8.009143 17.152-12.580571 28.013714-12.580571s21.138286 4.571429 28.013715 12.580571l182.857143 219.428572A34.925714 34.925714 0 0 1 438.857143 475.428571c0 20.004571-16.566857 36.571429-36.571429 36.571429H292.571429v219.428571h329.142857c5.156571 0 10.861714 2.304 14.299428 6.290286l91.428572 109.714286A23.04 23.04 0 0 1 731.428571 859.428571zM1097.142857 621.714286a34.962286 34.962286 0 0 1-8.557714 23.442285l-182.857143 219.428572c-6.838857 8.009143-17.152 13.129143-28.013714 13.129143s-21.138286-5.156571-28.013715-13.129143l-182.857142-219.428572A34.925714 34.925714 0 0 1 658.285714 621.714286c0-20.004571 16.566857-36.571429 36.571429-36.571429h109.714286v-219.428571h-329.142858a18.212571 18.212571 0 0 1-14.299428-6.838857l-91.428572-109.714286A19.602286 19.602286 0 0 1 365.714286 237.714286c0-9.728 8.557714-18.285714 18.285714-18.285715h548.571429c21.138286 0 18.285714 22.272 18.285714 36.571429v329.142857h109.714286c20.004571 0 36.571429 16.566857 36.571428 36.571429z" fill="#ffffff" p-id="1631"></path></svg>